<svg xmlns="http://www.w3.org/2000/svg" viewBox="0 0 512 512" role="img" aria-label="灵动健身">
  <rect width="512" height="512" rx="96" fill="#2563eb"/>
  <circle cx="256" cy="160" r="48" fill="#ffffff"/>
  <path fill="#ffffff" d="M176 248c0-27 22-49 49-49h62c27 0 49 22 49 49v24h72c18 0 32 14 32 32s-14 32-32 32h-72v56c0 18-14 32-32 32s-32-14-32-32v-56h-32v56c0 18-14 32-32 32s-32-14-32-32v-56h-72c-18 0-32-14-32-32s14-32 32-32h72v-24Z"/>
  <path fill="#86efac" d="M131 122c-10-10-10-26 0-36s26-10 36 0l32 32c10 10 10 26 0 36s-26 10-36 0l-32-32Zm250-36c10-10 26-10 36 0s10 26 0 36l-32 32c-10 10-26 10-36 0s-10-26 0-36l32-32Z"/>
</svg>
